# xmcd
#
# Track frame offsets:
# 150
# 17357
# 29877
# 47022
# 61779
# 77192
# 94812
# 107225
# 120235
# 138297
# 156152
# 172859
# 184885
# 201835
#
# Disc length: 2855 seconds
#
#
# Revision: 1
# Processed by: cddbd v1.5.1PL2 Copyright (c) Steve Scherf et al.
# Submitted via: FreeRIP 2.945 
#
DISCID=b20b250e
DTITLE=Só sucessos de modas de viola - Só sucessos de modas de viola
DYEAR=1900
DGENRE=Sertanejo
TTITLE0=O último julgamento - Leo Canhoto e Robertinho
TTITLE1=O menino e a rosa - Iridio e Irineo
TTITLE2=Filho adotivo - Sérgio Reis
TTITLE3=Canarinho do peito Amarelo - Tibagi e Miltinho
TTITLE4=Amanheci nos teus braços - Pedro Bento e Zé da Estrada
TTITLE5=Cabocla Tereza - Tonico e Tinoco
TTITLE6=Disco voador - Jacó e Jacozinho
TTITLE7=Boa noite, amor - Belmonte e Amaraí
TTITLE8=Manto estrelado - Dino Franco e Moraí
TTITLE9=Mãe amorosa - Abel e Caim
TTITLE10=Negrinho parafuso - Tião Carreiro e Pardinho
TTITLE11=Lenda da valsa dos noivos - Lourenço e Lourival
TTITLE12=India - Cascatinha e Inhana
TTITLE13=Peão sabido - Cacique e Pagé
EXTD=
EXTT0=
EXTT1=
EXTT2=
EXTT3=
EXTT4=
EXTT5=
EXTT6=
EXTT7=
EXTT8=
EXTT9=
EXTT10=
EXTT11=
EXTT12=
EXTT13=
PLAYORDER=
